<?xml version="1.0" encoding="UTF-8"?>
<svg width="148px" height="148px" viewBox="0 0 148 148" version="1.1" xmlns="http://www.w3.org/2000/svg" xmlns:xlink="http://www.w3.org/1999/xlink">
    <!-- Generator: Sketch 54.1 (76490) - https://sketchapp.com -->
    <title>ico_good</title>
    <desc>Created with Sketch.</desc>
    <g id="ico_good" stroke="none" stroke-width="1" fill="none" fill-rule="evenodd">
        <g>
            <ellipse id="Oval" fill="#0080FF" cx="74" cy="73.5" rx="67" ry="68.5"></ellipse>
            <path d="M73.999,0 C33.196,0 0,33.196 0,73.999 C0,114.802 33.196,147.998 73.999,147.998 C114.802,147.998 147.998,114.802 147.998,73.999 C147.998,33.196 114.8025,0 73.999,0 L73.999,0 Z M73.999,139.998 C55.871,139.998 39.4275,132.65 27.488,120.778 C22.72,116.037 18.6725,110.573 15.521,104.568 C10.721,95.4235 8,85.0235 8,73.999 C8,37.607 37.607,8 73.999,8 C91.2605,8 106.9925,14.664 118.7655,25.551 C124.8695,31.195 129.91,37.973 133.5445,45.549 C137.6795,54.1685 139.998,63.818 139.998,73.999 C139.998,110.391 110.391,139.998 73.999,139.998 L73.999,139.998 Z" id="Shape" fill="#0080FF"></path>
            <path d="M75.8718311,111.9985 C95.4370154,111.9985 111.808472,98.2827167 115.871,79.9985 L115.800078,79.9985 L35.871,79.9985 C39.9329741,98.2827167 56.3060928,111.9985 75.8718311,111.9985 L75.8718311,111.9985 Z" id="Shape" fill="#FFFFFF"></path>
            <path d="M118.997,73.9985 L29,73.9985 C29,98.8505 49.1465,118.9975 73.999,118.9975 C98.8505,118.9975 118.997,98.8505 118.997,73.9985 L118.997,73.9985 Z M109.9985,81.9985 L110.0625,81.9985 C106.3965,98.568 91.6225,110.9975 73.9675,110.9975 C56.3115,110.9975 41.537,98.568 37.8715,81.9985 L109.9985,81.9985 L109.9985,81.9985 Z" id="Shape" fill="#FFFFFF"></path>
            <circle id="Oval" fill="#FFFFFF" cx="49.2485" cy="53.999" r="8"></circle>
            <circle id="Oval" fill="#FFFFFF" cx="98.7485" cy="53.999" r="8"></circle>
        </g>
    </g>
</svg>